<svg viewBox="0 0 600 400" xmlns="http://www.w3.org/2000/svg">
  <!-- Background -->
  <rect width="600" height="400" fill="#f8fafc" rx="20" ry="20" />
  
  <!-- Phone outlines -->
  <!-- Left phone -->
  <rect x="120" y="80" width="120" height="240" rx="20" ry="20" fill="#1e293b" />
  <rect x="125" y="85" width="110" height="230" rx="15" ry="15" fill="#f8fafc" />
  <circle cx="180" cy="305" r="10" fill="#e2e8f0" />
  <rect x="167" y="90" width="26" height="5" rx="2.5" ry="2.5" fill="#94a3b8" />
  
  <!-- Center phone -->
  <rect x="245" y="60" width="130" height="280" rx="22" ry="22" fill="#1e293b" />
  <rect x="250" y="65" width="120" height="270" rx="18" ry="18" fill="#f8fafc" />
  <circle cx="310" cy="325" r="12" fill="#e2e8f0" />
  <rect x="295" y="70" width="30" height="6" rx="3" ry="3" fill="#94a3b8" />
  
  <!-- Right phone -->
  <rect x="380" y="100" width="110" height="200" rx="15" ry="15" fill="#1e293b" />
  <rect x="385" y="105" width="100" height="190" rx="12" ry="12" fill="#f8fafc" />
  <circle cx="435" cy="285" r="9" fill="#e2e8f0" />
  <rect x="425" y="109" width="20" height="4" rx="2" ry="2" fill="#94a3b8" />
  
  <!-- App interfaces -->
  <!-- Left phone interface - E-commerce -->
  <rect x="132" y="98" width="96" height="190" rx="5" ry="5" fill="#f9fafb" />
  
  <!-- Header -->
  <rect x="132" y="98" width="96" height="30" rx="5" ry="5" fill="#f43f5e" />
  <circle cx="150" cy="113" r="8" fill="white" fill-opacity="0.7" />
  <rect x="165" y="109" width="50" height="8" rx="4" ry="4" fill="white" fill-opacity="0.7" />
  
  <!-- Product cards -->
  <rect x="140" y="138" width="80" height="60" rx="5" ry="5" fill="white" stroke="#e5e7eb" stroke-width="1" />
  <rect x="150" y="145" width="60" height="30" rx="2" ry="2" fill="#60a5fa" />
  <rect x="150" y="180" width="40" height="6" rx="3" ry="3" fill="#4b5563" />
  <rect x="150" y="190" width="30" height="5" rx="2.5" ry="2.5" fill="#f43f5e" />
  
  <rect x="140" y="208" width="80" height="60" rx="5" ry="5" fill="white" stroke="#e5e7eb" stroke-width="1" />
  <rect x="150" y="215" width="60" height="30" rx="2" ry="2" fill="#a855f7" />
  <rect x="150" y="250" width="40" height="6" rx="3" ry="3" fill="#4b5563" />
  <rect x="150" y="260" width="30" height="5" rx="2.5" ry="2.5" fill="#f43f5e" />
  
  <!-- Center phone interface - Social media -->
  <rect x="260" y="82" width="100" height="225" rx="5" ry="5" fill="#f9fafb" />
  
  <!-- Header -->
  <rect x="260" y="82" width="100" height="35" rx="5" ry="5" fill="#3b82f6" />
  <circle cx="280" cy="99" r="10" fill="white" fill-opacity="0.7" />
  <rect x="295" y="94" width="55" height="10" rx="5" ry="5" fill="white" fill-opacity="0.7" />
  
  <!-- Posts -->
  <rect x="270" y="127" width="80" height="40" rx="3" ry="3" fill="white" stroke="#e5e7eb" stroke-width="1" />
  <circle cx="280" cy="140" r="6" fill="#3b82f6" />
  <rect x="290" y="134" width="50" height="6" rx="3" ry="3" fill="#4b5563" />
  <rect x="290" y="144" width="40" height="6" rx="3" ry="3" fill="#9ca3af" />
  
  <rect x="270" y="177" width="80" height="40" rx="3" ry="3" fill="white" stroke="#e5e7eb" stroke-width="1" />
  <circle cx="280" cy="190" r="6" fill="#f43f5e" />
  <rect x="290" y="184" width="50" height="6" rx="3" ry="3" fill="#4b5563" />
  <rect x="290" y="194" width="40" height="6" rx="3" ry="3" fill="#9ca3af" />
  
  <rect x="270" y="227" width="80" height="40" rx="3" ry="3" fill="white" stroke="#e5e7eb" stroke-width="1" />
  <circle cx="280" cy="240" r="6" fill="#10b981" />
  <rect x="290" y="234" width="50" height="6" rx="3" ry="3" fill="#4b5563" />
  <rect x="290" y="244" width="40" height="6" rx="3" ry="3" fill="#9ca3af" />
  
  
  <!-- Right phone interface - Fitness tracker -->
  <rect x="392" y="115" width="86" height="170" rx="4" ry="4" fill="#f9fafb" />
  
  <!-- Header -->
  <rect x="392" y="115" width="86" height="25" rx="4" ry="4" fill="#10b981" />
  <circle cx="408" cy="127" r="7" fill="white" fill-opacity="0.7" />
  <rect x="420" y="123" width="45" height="8" rx="4" ry="4" fill="white" fill-opacity="0.7" />
  
  <!-- Daily activity -->
  <rect x="400" y="150" width="70" height="40" rx="4" ry="4" fill="white" stroke="#e5e7eb" stroke-width="1" />
  
  <!-- Activity graph bars -->
  <rect x="410" y="170" width="5" height="12" rx="1" ry="1" fill="#10b981" />
  <rect x="420" y="163" width="5" height="19" rx="1" ry="1" fill="#3b82f6" />
  <rect x="430" y="158" width="5" height="24" rx="1" ry="1" fill="#f43f5e" />
  <rect x="440" y="165" width="5" height="17" rx="1" ry="1" fill="#3b82f6" />
  <rect x="450" y="173" width="5" height="9" rx="1" ry="1" fill="#10b981" />
  <rect x="460" y="168" width="5" height="14" rx="1" ry="1" fill="#3b82f6" />
  
  <!-- Stats -->
  <rect x="400" y="200" width="32" height="32" rx="4" ry="4" fill="white" stroke="#e5e7eb" stroke-width="1" />
  <circle cx="416" cy="210" r="6" fill="#f43f5e" fill-opacity="0.7" />
  <rect x="409" y="220" width="14" height="5" rx="2.5" ry="2.5" fill="#4b5563" />
  
  <rect x="438" y="200" width="32" height="32" rx="4" ry="4" fill="white" stroke="#e5e7eb" stroke-width="1" />
  <circle cx="454" cy="210" r="6" fill="#3b82f6" fill-opacity="0.7" />
  <rect x="447" y="220" width="14" height="5" rx="2.5" ry="2.5" fill="#4b5563" />
  
  <rect x="400" y="238" width="32" height="32" rx="4" ry="4" fill="white" stroke="#e5e7eb" stroke-width="1" />
  <circle cx="416" cy="248" r="6" fill="#a855f7" fill-opacity="0.7" />
  <rect x="409" y="258" width="14" height="5" rx="2.5" ry="2.5" fill="#4b5563" />
  
  <rect x="438" y="238" width="32" height="32" rx="4" ry="4" fill="white" stroke="#e5e7eb" stroke-width="1" />
  <circle cx="454" cy="248" r="6" fill="#10b981" fill-opacity="0.7" />
  <rect x="447" y="258" width="14" height="5" rx="2.5" ry="2.5" fill="#4b5563" />
</svg>